<?xml version="1.0" standalone="no"?>
<!DOCTYPE svg PUBLIC "-//W3C//DTD SVG 20010904//EN"
 "http://www.w3.org/TR/2001/REC-SVG-20010904/DTD/svg10.dtd">
<svg version="1.0" xmlns="http://www.w3.org/2000/svg"
 width="300.000000pt" height="300.000000pt" viewBox="0 0 300.000000 300.000000"
 preserveAspectRatio="xMidYMid meet">
<metadata>
Created by potrace 1.10, written by Peter Selinger 2001-2011
</metadata>
<g transform="translate(0.000000,300.000000) scale(0.100000,-0.100000)"
fill="#000000" stroke="none">
<path d="M20 2460 l0 -410 938 0 c922 0 938 0 970 -20 60 -37 81 -134 42 -198
-39 -64 -2 -62 -950 -62 l-860 0 0 -820 0 -820 456 2 455 3 -1 438 -1 437 45
0 44 0 432 -440 433 -440 478 0 479 0 0 400 0 400 -368 0 -368 0 -117 147
-117 148 77 16 c339 74 569 259 650 524 27 91 25 328 -5 449 -96 387 -372 606
-814 645 -57 5 -507 10 -1000 10 l-898 1 0 -410z m1965 354 c323 -45 556 -208
665 -464 45 -106 61 -189 67 -340 5 -129 3 -154 -16 -225 -31 -113 -75 -189
-156 -271 -109 -109 -234 -175 -438 -229 -158 -43 -158 -41 11 -255 46 -58 95
-113 110 -122 24 -16 60 -18 358 -18 243 0 333 -3 342 -12 19 -19 17 -681 -2
-697 -10 -9 -131 -11 -454 -9 l-440 3 -429 433 -428 433 -52 -1 c-85 0 -82 17
-84 -445 -1 -238 -6 -405 -12 -412 -7 -10 -100 -13 -402 -13 -217 0 -400 3
-409 6 -14 6 -16 83 -16 775 l0 769 22 9 c13 4 383 8 823 7 440 -1 820 2 845
6 85 15 130 71 131 161 1 68 -29 128 -81 160 l-35 22 -920 5 -920 5 -3 355
c-1 195 0 361 3 368 7 19 1780 16 1920 -4z"/>
</g>
</svg>
