 <svg  version="1.0" xmlns="http://www.w3.org/2000/svg"  width="900.000000pt" height="900.000000pt" viewBox="0 0 900.000000 900.000000"  preserveAspectRatio="xMidYMid meet">  <g transform="translate(0.000000,900.000000) scale(0.100000,-0.100000)" fill="#ffffff" stroke="none"> <path d="M79 8578 c-19 -7 -19 -29 -19 -1212 0 -1181 0 -1206 19 -1216 14 -7 904 -10 2805 -10 l2785 0 54 -25 c182 -87 275 -311 221 -534 -30 -123 -116 -217 -237 -258 -49 -17 -203 -18 -2642 -23 l-2590 -5 -2 -2435 c-2 -1339 1 -2441 5 -2448 7 -10 283 -13 1359 -14 743 0 1355 2 1362 6 8 5 11 346 11 1301 0 838 3 1296 10 1300 5 3 62 6 125 7 114 1 117 0 148 -28 17 -16 34 -32 37 -36 4 -5 483 -490 1731 -1753 196 -198 453 -458 571 -577 118 -120 219 -218 224 -218 402 -4 2845 -1 2852 4 17 11 17 2337 0 2354 -9 9 -266 12 -1095 12 l-1083 0 -19 23 c-31 36 -264 329 -317 398 -26 35 -53 69 -59 75 -5 6 -37 47 -70 89 -33 43 -76 97 -95 119 -70 83 -141 186 -135 196 3 5 16 10 28 10 66 0 385 77 572 138 88 28 122 41 275 105 114 48 337 164 371 193 8 8 19 14 23 14 5 0 25 14 46 30 21 17 41 30 45 30 3 0 43 28 88 62 105 79 312 283 379 373 29 39 56 75 61 80 21 26 83 127 118 193 113 212 179 429 214 700 17 128 19 402 5 537 -5 50 -14 134 -20 187 -5 53 -14 116 -20 140 -5 24 -14 68 -20 98 -30 154 -44 204 -88 335 -46 132 -61 173 -72 193 -5 9 -30 62 -56 117 -68 145 -196 346 -297 465 -96 113 -290 294 -397 370 -97 68 -164 112 -221 144 -89 51 -287 146 -302 146 -7 0 -17 4 -23 9 -22 22 -357 125 -509 156 -44 9 -100 21 -125 26 -25 5 -81 14 -125 19 -44 5 -109 14 -145 19 -36 5 -144 13 -240 17 -226 9 -5495 11 -5521 2z"/> </g> </svg> 